<?xml version="1.0" standalone="no"?>
<!DOCTYPE svg PUBLIC "-//W3C//DTD SVG 20010904//EN"
 "http://www.w3.org/TR/2001/REC-SVG-20010904/DTD/svg10.dtd">
<svg version="1.0" xmlns="http://www.w3.org/2000/svg"
 width="640.000000pt" height="640.000000pt" viewBox="0 0 640.000000 640.000000"
 preserveAspectRatio="xMidYMid meet">
<metadata>
Created by potrace 1.16, written by Peter Selinger 2001-2019
</metadata>
<g transform="translate(0.000000,640.000000) scale(0.100000,-0.100000)"
fill="#00897B" stroke="none">
<path d="M2473 5056 l-28 -24 -3 -159 c-3 -148 -2 -160 17 -185 42 -53 131
-52 158 2 17 33 18 312 1 343 -28 53 -97 64 -145 23z"/>
<path d="M3799 5051 l-29 -29 0 -158 c0 -158 0 -158 27 -186 35 -37 90 -38
130 -4 27 24 28 27 32 146 4 152 -4 206 -34 236 -35 35 -88 33 -126 -5z"/>
<path d="M2121 4853 c-24 -9 -63 -35 -86 -58 -76 -75 -75 -66 -78 -633 l-2
-502 68 0 67 0 0 365 0 365 1109 0 c611 0 1111 -3 1113 -7 2 -5 1 -369 -2
-810 l-5 -802 -30 -32 c-55 -58 -62 -59 -430 -59 l-336 0 -60 -57 c-32 -31
-59 -60 -59 -65 0 -5 172 -8 418 -6 l417 3 57 28 c34 17 72 46 93 71 68 84 65
29 65 1065 0 1055 4 993 -76 1074 -58 59 -111 77 -231 77 l-93 0 0 -80 c0 -92
-13 -132 -59 -176 -84 -82 -217 -59 -271 47 -15 29 -20 58 -20 124 l0 85 -490
0 -490 0 0 -85 c0 -145 -55 -216 -169 -217 -115 0 -181 82 -181 227 l0 75 -97
-1 c-61 0 -115 -6 -142 -16z"/>
<path d="M2661 4249 c-141 -27 -306 -158 -369 -290 -38 -79 -62 -175 -62 -246
l0 -53 65 0 65 0 0 43 c0 23 7 69 15 100 49 188 193 313 372 325 156 10 264
-46 378 -195 38 -50 72 -92 75 -92 3 0 37 42 75 92 117 152 214 203 369 195
174 -9 312 -115 371 -285 l18 -51 31 23 c17 12 41 26 54 30 31 9 28 30 -15
116 -89 180 -282 299 -481 299 -131 0 -262 -52 -359 -143 l-63 -59 -63 59
c-125 117 -303 166 -476 132z"/>
<path d="M3585 3971 c-23 -11 -101 -81 -186 -167 -117 -119 -150 -158 -160
-191 -34 -116 79 -226 197 -193 35 10 69 39 197 169 165 166 183 195 167 264
-24 108 -123 162 -215 118z m115 -56 c32 -16 54 -69 45 -107 -3 -13 -35 -55
-70 -93 l-64 -70 -73 72 -72 72 50 52 c84 88 125 104 184 74z m-254 -190 c4
-10 -12 -35 -45 -70 -34 -36 -51 -62 -51 -80 0 -29 -27 -45 -41 -24 -19 28 1
74 58 131 61 62 70 67 79 43z"/>
<path d="M2652 3921 c-7 -4 -42 -84 -77 -177 l-63 -169 -352 -5 c-333 -5 -352
-6 -366 -24 -21 -29 -17 -59 9 -84 23 -22 27 -22 396 -22 222 0 380 4 390 10
11 5 31 45 47 90 16 44 32 80 35 80 4 0 9 -10 11 -22 39 -181 113 -467 125
-480 19 -21 61 -23 85 -4 10 7 38 71 64 142 25 71 50 141 56 157 9 25 14 27
64 27 61 0 94 23 94 65 0 49 -31 65 -124 65 -103 0 -113 -8 -151 -108 -16 -39
-29 -71 -31 -69 -1 1 -14 52 -28 112 -75 324 -96 401 -113 413 -19 14 -52 16
-71 3z"/>
<path d="M4108 3741 c-32 -26 -52 -73 -84 -201 -34 -140 -72 -207 -169 -305
-116 -117 -252 -180 -263 -122 -3 12 22 45 72 97 81 83 106 127 106 187 0 39
-22 83 -42 83 -6 0 -42 -33 -80 -74 -40 -44 -110 -102 -172 -145 -131 -89
-185 -142 -222 -217 -27 -55 -29 -67 -30 -187 -1 -174 -1 -174 -129 -99 -300
173 -533 371 -629 536 l-39 66 -68 0 c-41 0 -69 -4 -69 -10 0 -21 59 -126 105
-189 67 -91 126 -153 228 -238 156 -130 527 -362 580 -363 33 0 92 39 172 116
95 91 133 118 243 173 227 114 350 223 451 402 61 108 83 196 116 457 l7 52
-30 0 c-16 0 -40 -9 -54 -19z"/>
<path d="M3938 3664 c-47 -25 -73 -94 -93 -249 -4 -27 -15 -71 -25 -97 -17
-46 -17 -47 0 -38 28 15 78 82 105 142 20 45 65 215 65 248 0 14 -20 12 -52
-6z"/>
<path d="M1960 3358 c0 -2 0 -133 -1 -293 0 -250 2 -296 16 -330 28 -65 80
-121 143 -152 l57 -28 413 -3 c285 -2 412 0 407 7 -3 6 -27 23 -53 38 -26 15
-66 39 -89 55 l-42 28 -283 0 c-296 0 -345 6 -386 43 -50 46 -52 57 -52 357
l0 280 -65 0 c-36 0 -65 -1 -65 -2z"/>
<path d="M3254 2227 c-58 -50 -23 -127 56 -127 30 0 43 6 59 26 34 43 26 86
-20 109 -39 21 -64 19 -95 -8z"/>
<path d="M1639 2208 c0 -2 -1 -145 -1 -318 l-1 -315 67 -3 66 -3 0 321 0 320
-65 0 c-36 0 -65 -1 -66 -2z"/>
<path d="M4380 2105 c0 -58 -2 -105 -4 -105 -3 0 -21 10 -41 21 -53 32 -149
24 -207 -17 -58 -40 -98 -118 -98 -192 0 -81 19 -131 70 -183 37 -39 55 -49
100 -58 64 -12 119 -3 162 29 l28 21 0 -26 c0 -24 2 -25 60 -25 l60 0 0 320 0
320 -65 0 -65 0 0 -105z m-34 -209 c30 -30 34 -40 34 -88 0 -83 -37 -127 -108
-128 -36 0 -49 5 -72 30 -37 40 -46 94 -24 149 31 77 112 95 170 37z"/>
<path d="M970 1874 l0 -306 178 4 c169 3 179 5 234 31 147 72 207 247 138 404
-57 130 -161 173 -417 173 l-133 0 0 -306z m333 172 c67 -28 107 -93 107 -171
0 -55 -14 -92 -48 -129 -40 -42 -82 -56 -171 -56 -66 0 -80 3 -83 16 -2 9 -2
93 0 185 l3 169 80 0 c45 0 93 -6 112 -14z"/>
<path d="M1828 2034 c-3 -3 16 -56 42 -117 125 -294 142 -339 136 -363 -11
-41 -61 -54 -118 -30 -13 6 -22 -2 -38 -34 -12 -23 -19 -47 -17 -54 6 -16 74
-36 120 -36 71 0 123 34 159 104 36 70 216 525 210 530 -9 9 -78 7 -104 -3
-18 -7 -35 -39 -78 -150 -30 -77 -57 -141 -60 -141 -3 0 -31 68 -63 150 l-59
150 -62 0 c-35 0 -65 -3 -68 -6z"/>
<path d="M2387 2034 c-4 -4 -7 -110 -7 -236 l0 -229 68 3 67 3 5 152 c5 141 7
154 27 175 30 30 86 30 116 0 21 -21 22 -33 25 -177 l3 -155 65 0 64 0 0 133
c0 106 4 139 18 167 35 70 111 75 144 9 15 -27 18 -60 18 -171 l0 -138 66 0
66 0 -4 178 c-3 162 -5 180 -25 212 -55 89 -207 108 -284 36 l-27 -25 -22 24
c-48 51 -167 60 -228 17 l-31 -22 -3 22 c-3 20 -9 23 -58 26 -31 2 -59 0 -63
-4z"/>
<path d="M3240 1805 l0 -235 65 0 65 0 0 235 0 235 -65 0 -65 0 0 -235z"/>
<path d="M3490 1805 l0 -235 65 0 65 0 0 130 c0 179 19 221 101 224 33 1 46
-5 65 -27 23 -27 24 -34 24 -178 l0 -149 65 0 65 0 0 173 c0 160 -2 175 -23
212 -34 60 -87 86 -167 83 -48 -3 -74 -9 -97 -26 -39 -28 -43 -28 -43 3 0 24
-3 25 -60 25 l-60 0 0 -235z"/>
<path d="M4719 2012 c-39 -20 -62 -41 -84 -76 -60 -98 -41 -250 39 -311 104
-79 258 -80 344 -2 l22 21 -36 37 -37 38 -28 -21 c-35 -26 -113 -30 -153 -8
-31 16 -61 65 -46 75 5 3 76 5 157 5 82 -1 154 -1 161 0 33 1 -3 143 -51 197
-68 78 -189 97 -288 45z m170 -86 c23 -13 58 -63 49 -72 -6 -5 -198 -7 -204
-2 -10 10 18 55 44 71 33 20 74 21 111 3z"/>
<path d="M5150 1805 l0 -235 64 0 64 0 4 138 c2 112 6 142 21 164 19 28 63 48
103 48 23 0 24 4 24 60 l0 60 -33 0 c-20 0 -52 -12 -81 -30 l-47 -31 3 28 c3
28 2 28 -59 31 l-63 3 0 -236z"/>
</g>
</svg>
